PathFileType	4	(X/Y/Z)	D:\TRACE\spotREDO_2-26-24\spot_Both_Motion_3_10-platform.trc
DataRate	CameraRate	NumFrames	NumMarkers	Units	OrigDataRate	OrigDataStartFrame	OrigNumFrames
100.00	100.00	      24	5	mm	100.00	2626	      7000
Frame#	Time	Left_Front			Right_Front			Left_Aft			Right_Aft			Post			
		X1	Y1	Z1	X2	Y2	Z2	X3	Y3	Z3	X4	Y4	Z4	X5	Y5	Z5	

2626	26.250	-699.51282	63.88097	-554.11914	715.16437	63.47775	-469.76193	-770.52075	-68.39437	657.29840	799.04712	-61.39191	662.50385	-5.87769	733.93030	-887.12012	
2627	26.260	-699.67834	64.13280	-554.04956	714.82959	63.77913	-469.65903	-770.62054	-68.66531	657.32758	798.90253	-61.60983	662.57733	-6.00570	734.41168	-886.59338	
2628	26.270	-699.76477	64.47800	-554.00671	714.71527	63.92680	-469.44052	-770.62408	-68.85542	657.40265	798.61145	-61.94505	662.50427	-6.24988	734.74628	-886.35065	
2629	26.280	-699.96283	64.91441	-553.93097	714.60266	64.17633	-469.22955	-770.86072	-69.34553	657.41522	798.46454	-62.17897	662.57208	-6.16852	735.01782	-886.10706	
2630	26.290	-700.02386	65.21010	-553.76868	714.47198	64.25112	-469.19882	-770.98291	-69.61001	657.44177	798.46332	-62.43489	662.76807	-6.03289	735.53223	-885.80383	
2631	26.300	-700.06506	65.46494	-553.66711	714.34314	64.47830	-469.10336	-771.11041	-69.83096	657.43445	798.29578	-62.88460	662.84650	-6.09937	736.11499	-885.68146	
2632	26.310	-700.11395	65.69357	-553.59033	714.17657	64.59851	-469.04926	-771.26050	-70.03375	657.53522	798.07721	-63.27485	662.76984	-6.38417	736.40271	-885.54425	
2633	26.320	-700.19312	65.79710	-553.57330	714.13867	64.89790	-468.88959	-771.36060	-70.18687	657.56934	798.11530	-63.47614	662.75452	-6.47975	736.56616	-885.44092	
2634	26.330	-700.31805	65.97571	-553.58215	714.07996	65.02364	-468.91284	-771.44196	-70.41965	657.60791	797.98590	-63.71160	662.70038	-6.53333	736.78857	-885.18042	
2635	26.340	-700.53320	66.16399	-553.52466	713.93463	65.21629	-468.82239	-771.47974	-70.56363	657.62140	797.85950	-63.83987	662.72382	-6.87721	737.17236	-885.05304	
2636	26.350	-700.67944	66.37477	-553.49432	713.87738	65.41118	-468.66348	-771.49670	-70.71301	657.65210	797.80176	-63.92361	662.73535	-7.23604	737.48108	-884.79486	
2637	26.360	-700.91840	66.56901	-553.36639	713.78351	65.52584	-468.63553	-771.78851	-71.14472	657.62854	797.64594	-64.05564	662.82184	-7.44658	737.77917	-884.39600	
2638	26.370	-701.07983	66.73012	-553.35956	713.72974	65.70483	-468.62119	-771.90204	-71.28281	657.66864	797.60883	-64.21323	662.77521	-7.26628	737.93353	-884.12408	
2639	26.380	-701.11652	66.80257	-553.37982	713.73779	65.85562	-468.53522	-771.95557	-71.45621	657.72589	797.50635	-64.39381	662.87793	-7.14326	738.06104	-883.86328	
2640	26.390	-701.29376	66.95276	-553.32941	713.68158	65.99348	-468.51495	-771.98560	-71.52446	657.74896	797.43463	-64.55093	662.91852	-6.97072	738.28912	-883.47162	
2641	26.400	-701.35864	67.05161	-553.27313	713.63379	66.11559	-468.50351	-772.07056	-71.64048	657.73578	797.44891	-64.63042	662.96429	-7.19751	738.52661	-883.21051	
2642	26.410	-701.40527	67.14448	-553.20795	713.64929	66.18049	-468.42813	-772.19757	-71.67060	657.74457	797.35699	-64.83777	663.06451	-7.39435	738.65625	-883.03015	
2643	26.420	-701.49670	67.28322	-553.09210	713.50226	66.23708	-468.50214	-772.24152	-71.72430	657.78363	797.25177	-64.93070	663.09760	-7.67238	738.82642	-882.86896	
2644	26.430	-701.53461	67.35788	-553.01617	713.59558	66.52346	-468.51984	-772.27490	-71.80041	657.79181	797.14905	-65.04136	662.96698	-7.72510	738.89978	-882.75293	
2645	26.440	-701.56824	67.38588	-553.01898	713.46490	66.59133	-468.52750	-772.34943	-71.82813	657.80328	797.57678	-64.67161	663.41571	-7.87216	738.98309	-882.68164	
2646	26.450	-701.58002	67.43460	-553.00116	713.49835	66.68742	-468.52252	-772.35028	-71.84171	657.79022	797.49329	-64.68269	663.42853	-7.92181	739.07159	-882.66040	
2647	26.460	-701.58661	67.44215	-552.98254	713.41736	66.68299	-468.52960	-772.38037	-71.87922	657.83380	797.52924	-64.72107	663.44281	-7.92813	739.12097	-882.60962	
2648	26.470	-701.62500	67.45693	-552.96027	713.39276	66.73798	-468.47150	-772.37769	-71.88628	657.82526	797.50433	-64.72369	663.49237	-7.92603	739.14166	-882.61322	
2649	26.480	-701.65637	67.47675	-552.95398	713.36145	66.71072	-468.41135	-772.39758	-71.86126	657.84778	797.50671	-64.70467	663.47498	-7.99858	739.11438	-882.62817	
